<?xml version="1.0" encoding="UTF-8" standalone="no" ?>
<!DOCTYPE svg PUBLIC "-//W3C//DTD SVG 1.1//EN" "http://www.w3.org/Graphics/SVG/1.1/DTD/svg11.dtd">
<svg xmlns="http://www.w3.org/2000/svg" xmlns:xlink="http://www.w3.org/1999/xlink" version="1.1" width="1280" height="1024" viewBox="0 0 1280 1024" xml:space="preserve">
<desc>Created with Fabric.js 5.3.0</desc>
<defs>
</defs>
<g transform="matrix(1 0 0 1 640 512)" id="background-logo"  >
<rect style="stroke: none; stroke-width: 0; stroke-dasharray: none; stroke-linecap: butt; stroke-dashoffset: 0; stroke-linejoin: miter; stroke-miterlimit: 4; fill: rgb(255,255,255); fill-opacity: 0; fill-rule: nonzero; opacity: 1;"  paint-order="stroke"  x="-640" y="-512" rx="0" ry="0" width="1280" height="1024" />
</g>
<g transform="matrix(1.9211538461538462 0 0 1.9211538461538462 639.7406442307691 676.7955787467174)" id="text-logo"  >
<g style=""  paint-order="stroke"   >
		<g transform="matrix(1 0 0 1 0 0)" id="text-logo-path-0"  >
<path style="stroke: none; stroke-width: 0.625; stroke-dasharray: none; stroke-linecap: butt; stroke-dashoffset: 0; stroke-linejoin: miter; stroke-miterlimit: 4; fill: rgb(0,0,0); fill-rule: nonzero; opacity: 1;"  paint-order="stroke"  transform=" translate(-261.39, 21)" d="M 2.4 -42 L 2.4 0 L 9 0 L 9 -18.3 L 21 -18.3 L 21 -24.9 L 9 -24.9 L 9 -35.4 L 22.2 -35.4 L 22.2 -42 Z M 42.54 -42 L 42.54 0 L 49.14 0 L 49.14 -42 Z M 69.42 -42 L 69.42 0 L 76.02 0 L 76.02 -24.84 L 86.4 0 L 93 0 L 93 -42 L 86.4 -42 L 86.4 -15.78 L 75.42 -42 Z M 118.38 -42 L 111.18 0 L 117.78 0 L 118.5 -4.2 L 127.44 -4.2 L 128.16 0 L 134.76 0 L 127.56 -42 Z M 119.64 -10.8 L 123 -30.3 L 126.3 -10.8 Z M 153.54 -42 L 153.54 0 L 173.34 0 L 173.34 -6.6 L 160.14 -6.6 L 160.14 -42 Z M 192.24 -42 L 192.24 0 L 212.04 0 L 212.04 -6.6 L 198.84 -6.6 L 198.84 -42 Z M 231.9 -17.4 L 231.9 0 L 238.5 0 L 238.5 -17.4 L 246.9 -42 L 239.7 -42 L 235.2 -25.2 L 230.7 -42 L 223.5 -42 Z M 262.2 -6.6 L 262.2 0 L 268.8 0 L 268.8 -6.6 Z M 315.72 -42 L 315.72 0 L 322.32 0 L 322.32 -18.3 L 334.32 -18.3 L 334.32 -24.9 L 322.32 -24.9 L 322.32 -35.4 L 335.52 -35.4 L 335.52 -42 Z M 357.48 -42 L 350.28 0 L 356.88 0 L 357.6 -4.2 L 366.54 -4.2 L 367.26 0 L 373.86 0 L 366.66 -42 Z M 358.74 -10.8 L 362.1 -30.3 L 365.4 -10.8 Z M 394.56 0 L 403.74 0 L 410.94 -42 L 404.34 -42 L 399.18 -11.7 L 393.96 -42 L 387.36 -42 Z M 427.56 -30.84 L 427.56 -11.16 C 427.56 -4.32 432.24 0.6 439.38 0.6 C 446.22 0.6 451.14 -4.08 451.14 -11.16 L 451.14 -30.84 C 451.14 -37.68 446.46 -42.6 439.38 -42.6 C 432.54 -42.6 427.56 -38.04 427.56 -30.84 Z M 434.16 -11.16 L 434.16 -30.84 C 434.16 -34.68 435.6 -36 439.38 -36 C 443.16 -36 444.54 -34.56 444.54 -30.84 L 444.54 -11.16 C 444.54 -7.38 443.1 -6 439.38 -6 C 435.54 -6 434.16 -7.44 434.16 -11.16 Z M 482.46 -42 L 470.7 -42 L 470.7 0 L 477.3 0 L 477.3 -18.36 L 482.46 -18.36 C 486.24 -18.36 487.68 -16.98 487.68 -13.14 L 487.68 0 L 494.28 0 L 494.28 -13.14 C 494.28 -16.68 493.08 -19.62 490.98 -21.66 C 493.08 -23.76 494.28 -26.76 494.28 -30.18 C 494.28 -37.32 489.36 -42 482.46 -42 Z M 477.3 -24.96 L 477.3 -35.4 L 482.46 -35.4 C 486.24 -35.4 487.68 -34.02 487.68 -30.18 C 487.68 -26.46 486.24 -24.96 482.46 -24.96 Z M 513.78 -6.6 L 513.78 0 L 520.38 0 L 520.38 -6.6 Z" stroke-linecap="round" />
</g>
</g>
</g>
<g transform="matrix(1.9211538461538462 0 0 1.9211538461538462 640 392.0777852066547)" id="logo-logo"  >
<g style=""  paint-order="stroke"   >
		<g transform="matrix(3.766451299667022 0 0 -3.766451299667022 -31.288735279089508 0.003459199999866769)"  >
<path style="stroke: none; stroke-width: 1; stroke-dasharray: none; stroke-linecap: butt; stroke-dashoffset: 0; stroke-linejoin: miter; stroke-miterlimit: 4; fill: rgb(0,0,0); fill-rule: nonzero; opacity: 1;"  paint-order="stroke"  transform=" translate(-154.505, -141.9855)" d="M 143.713 136.701 L 165.297 136.701 L 165.297 147.26999999999998 L 143.713 147.26999999999998 z" stroke-linecap="round" />
</g>
		<g transform="matrix(3.766451299667022 0 0 -3.766451299667022 -52.036441344067896 77.22845053121483)"  >
<path style="stroke: none; stroke-width: 1; stroke-dasharray: none; stroke-linecap: butt; stroke-dashoffset: 0; stroke-linejoin: miter; stroke-miterlimit: 4; fill: rgb(0,0,0); fill-rule: nonzero; opacity: 1;"  paint-order="stroke"  transform=" translate(-148.9975, -121.48750000000001)" d="M 143.713 116.135 L 154.28199999999998 116.135 L 154.28199999999998 126.84 L 143.713 126.84 z" stroke-linecap="round" />
</g>
		<g transform="matrix(3.766451299667022 0 0 -3.766451299667022 0.0066830904676749014 -77.48456921959215)"  >
<path style="stroke: none; stroke-width: 1; stroke-dasharray: none; stroke-linecap: butt; stroke-dashoffset: 0; stroke-linejoin: miter; stroke-miterlimit: 4; fill: rgb(0,0,0); fill-rule: nonzero; opacity: 1;"  paint-order="stroke"  transform=" translate(-162.8115, -162.55349999999999)" d="M 143.713 157.269 L 181.91 157.269 L 181.91 167.838 L 143.713 167.838 z" stroke-linecap="round" />
</g>
</g>
</g>
<g transform="matrix(0.3991891329235383 0 0 0.3991891329235383 652.3752188959493 541.4053943586943)" id="shape-4d782442-f534-460a-8e9b-dbef69ece5d0"  >
<g style=""  paint-order="stroke"   >
		<g transform="matrix(1 0 0 1 0 0)" id="Layer_1"  >
<path style="stroke: none; stroke-width: 1; stroke-dasharray: none; stroke-linecap: butt; stroke-dashoffset: 0; stroke-linejoin: miter; stroke-miterlimit: 4; fill: rgb(188,188,188); fill-rule: nonzero; opacity: 1;"  paint-order="stroke"  transform=" translate(-100, -100)" d="M 200 100 C 200 155.22847498307934 155.22847498307934 200 100 200 C 44.771525016920656 200 0 155.22847498307934 0 100 C 0 44.771525016920656 44.771525016920656 0 100 0 C 155.22847498307934 0 200 44.77152501692063 200 99.99999999999997 Z" stroke-linecap="round" />
</g>
</g>
</g>
</svg>